<svg xmlns="http://www.w3.org/2000/svg" viewBox="0 0 1000 1000"><path fill="#b22234" d="M8 195.25c170.83-85.22 341.03-54.42 513.26-27.97 155.21 23.84 312.16 44.57 470.74-34.53v672c-170.83 85.22-341.03 54.42-513.26 27.97C323.53 808.88 166.58 788.15 8 867.25z"/><path fill="#fff" d="M8 246.94c170.83-85.22 341.03-54.42 513.26-27.97 155.21 23.85 312.16 44.57 470.74-34.53v51.69c-170.83 85.23-341.03 54.43-513.26 27.97C323.53 240.26 166.58 219.53 8 298.63zm984 92.58c-170.83 85.22-341.03 54.42-513.26 27.97C323.53 343.65 166.58 322.92 8 402.02v-51.69c170.83-85.23 341.03-54.42 513.26-27.97C676.47 346.2 833.42 366.93 992 287.83zM8 453.71c170.83-85.22 341.03-54.42 513.26-27.97 155.21 23.84 312.16 44.57 470.74-34.53v51.69c-170.83 85.23-341.03 54.42-513.26 27.97C323.53 447.03 166.58 426.3 8 505.4zm984 92.58c-170.83 85.22-341.03 54.42-513.26 27.97C323.53 550.42 166.58 529.69 8 608.79V557.1c170.83-85.23 341.03-54.42 513.26-27.97C676.47 552.97 833.42 573.7 992 494.6zM8 660.48c170.83-85.22 341.03-54.42 513.26-27.97 155.21 23.84 312.16 44.57 470.74-34.53v51.69c-170.83 85.23-341.03 54.42-513.26 27.97C323.53 653.8 166.58 633.07 8 712.17zm984 92.58c-170.83 85.22-341.03 54.42-513.26 27.97C323.53 757.18 166.58 736.46 8 815.56v-51.69c170.83-85.23 341.03-54.43 513.26-27.97 155.21 23.84 312.16 44.57 470.74-34.53z"/><path fill="#3c3b6e" d="M8 195.25c130.03-64.87 259.66-62.82 393.6-45.62v361.84C272 494.84 141.49 490.5 8 557.1z"/><path fill="#fff" d="m40.8 195.75 9.37 33.62c-8.1-4.44-16.19-8.66-24.53-12.74 10.01-4.53 20.01-8.69 30.32-12.61l-24.53 33.14zm0 72.37 9.37 33.62c-8.1-4.45-16.19-8.66-24.53-12.74a523 523 0 0 1 30.32-12.61l-24.53 33.14zm0 72.37 9.37 33.62c-8.1-4.45-16.19-8.66-24.53-12.74a523 523 0 0 1 30.32-12.61L31.43 381.9zm0 72.37 9.37 33.62c-8.1-4.45-16.19-8.66-24.53-12.74 10.01-4.54 20.01-8.7 30.32-12.61l-24.53 33.14zm0 72.37 9.37 33.62c-8.1-4.45-16.19-8.66-24.53-12.74 10.01-4.54 20.01-8.7 30.32-12.61l-24.53 33.14zM73.6 219.6l9.37 34.35c-8.1-5.07-16.19-9.92-24.53-14.68 10.01-3.72 20.01-7.09 30.32-10.23l-24.53 31.23zm0 72.37 9.37 34.35c-8.1-5.07-16.19-9.92-24.53-14.68a521 521 0 0 1 30.32-10.23l-24.53 31.23zm0 72.37 9.37 34.35c-8.1-5.07-16.19-9.92-24.53-14.68a521 521 0 0 1 30.32-10.23l-24.53 31.23zm0 72.37 9.37 34.35c-8.1-5.07-16.19-9.92-24.53-14.68a521 521 0 0 1 30.32-10.23l-24.53 31.23zm32.8-263.14 9.37 35.02c-8.1-5.64-16.19-11.09-24.53-16.48 10.01-2.96 20.01-5.61 30.32-8.02l-24.53 29.46zm0 72.37 9.37 35.02c-8.1-5.64-16.19-11.09-24.53-16.48 10.01-2.96 20.01-5.61 30.32-8.02l-24.53 29.45zm0 72.37 9.37 35.02c-8.1-5.64-16.19-11.09-24.53-16.48 10.01-2.96 20.01-5.61 30.32-8.02l-24.53 29.45zm0 72.37 9.37 35.02c-8.1-5.65-16.19-11.09-24.53-16.48 10.01-2.96 20.01-5.61 30.32-8.02l-24.53 29.45zm0 72.37 9.37 35.02c-8.1-5.65-16.19-11.09-24.53-16.48 10.01-2.96 20.01-5.61 30.32-8.02l-24.53 29.45zm32.8-260.85 9.37 35.64-24.53-18.14c10.01-2.26 20.01-4.24 30.32-5.99l-24.53 27.83zm0 72.37 9.37 35.64-24.53-18.14c10.01-2.26 20.01-4.24 30.32-5.99l-24.53 27.83zm0 72.37 9.37 35.64-24.53-18.14c10.01-2.27 20.01-4.24 30.32-5.99l-24.53 27.83zm0 72.36 9.37 35.65-24.53-18.14c10.01-2.27 20.01-4.24 30.32-5.99l-24.53 27.83zM172 160.56l9.37 36.2-24.53-19.64c10.01-1.63 20.01-3 30.32-4.14l-24.53 26.34zm0 72.36 9.37 36.21-24.53-19.65c10.01-1.63 20.01-2.99 30.32-4.13l-24.53 26.33zm0 72.37 9.37 36.21-24.53-19.65c10.01-1.63 20.01-2.99 30.32-4.13l-24.53 26.33zm0 72.37 9.37 36.21-24.53-19.65c10.01-1.63 20.01-2.99 30.32-4.13l-24.53 26.33zm0 72.37 9.37 36.21-24.53-19.65a605 605 0 0 1 30.32-4.14l-24.53 26.34zm32.8-256.84 9.37 36.72-24.53-21.02c10.01-1.05 20.01-1.86 30.32-2.46l-24.53 25zm0 72.37 9.37 36.72-24.53-21.02c10.01-1.05 20.01-1.86 30.32-2.46l-24.53 25zm0 72.37 9.37 36.72-24.53-21.02c10.01-1.05 20.01-1.86 30.32-2.46l-24.53 25zm0 72.37 9.37 36.72L189.64 426c10.01-1.05 20.01-1.86 30.32-2.46l-24.53 24.99zm32.8-255.12 9.37 37.17-24.53-22.24c10.01-.53 20.01-.84 30.32-.96l-24.53 23.79zm0 72.37 9.37 37.17-24.53-22.24c10.01-.53 20.01-.85 30.32-.96l-24.53 23.79zm0 72.37 9.37 37.17-24.53-22.24c10.01-.53 20.01-.85 30.32-.96l-24.53 23.79zm0 72.37 9.37 37.17-24.53-22.24c10.01-.53 20.01-.85 30.32-.96l-24.53 23.79zm0 72.37 9.37 37.17-24.53-22.24c10.01-.53 20.01-.85 30.32-.96l-24.53 23.79zm32.8-253.6 9.37 37.58-24.53-23.33c10.01-.06 20.01.06 30.32.36l-24.53 22.74zm0 72.37 9.37 37.57-24.53-23.32c10.01-.07 20.01.06 30.32.36l-24.53 22.74zm0 72.37 9.37 37.57-24.53-23.32c10.01-.07 20.01.06 30.32.36l-24.53 22.74zm0 72.37 9.37 37.57-24.53-23.32c10.01-.07 20.01.05 30.32.36l-24.53 22.74zm32.8-252.26 9.37 37.92-24.53-24.26 30.32 1.51-24.53 21.82zm0 72.37 9.37 37.92-24.53-24.26 30.32 1.51-24.53 21.82zm0 72.37 9.37 37.92-24.53-24.26 30.32 1.51-24.53 21.82zm0 72.37 9.37 37.92-24.53-24.26 30.32 1.51-24.53 21.82zm0 72.37 9.37 37.92-24.53-24.26 30.32 1.51-24.53 21.81zM336 194.28l9.37 38.21-24.53-25.06 30.32 2.48-24.53 21.05zm0 72.37 9.37 38.21-24.53-25.06 30.32 2.48-24.53 21.05zm0 72.37 9.37 38.21-24.53-25.06 30.32 2.48-24.53 21.04zm0 72.37 9.37 38.21-24.53-25.06 30.32 2.48-24.53 21.04zm32.8-250.16 9.37 38.45-24.53-25.72 30.32 3.28-24.53 20.42zm0 72.37 9.37 38.45-24.53-25.72 30.32 3.28-24.53 20.41zm0 72.37 9.37 38.45-24.53-25.72 30.32 3.28-24.53 20.41zm0 72.37 9.37 38.45-24.53-25.72 30.32 3.28-24.53 20.41zm0 72.37 9.37 38.45-24.53-25.72 30.32 3.28-24.53 20.41z"/><path fill="#1A1A1A" d="M8 195.25c170.83-85.22 341.03-54.42 513.26-27.97 155.21 23.84 312.16 44.57 470.74-34.53v672c-170.83 85.22-341.03 54.42-513.26 27.97C323.53 808.88 166.58 788.15 8 867.25zm31.25 19.39v604.5c306.56-128.26 611.18 96.04 921.5-33.78v-604.5c-306.56 128.26-611.18-96.04-921.5 33.78" opacity=".2"/></svg>